<?xml version="1.0" encoding="UTF-8"?><svg id="Layer_1" xmlns="http://www.w3.org/2000/svg" viewBox="0 0 484.03 217.03"><defs><style>.cls-1{fill:#69696b;}.cls-2{fill:#3c59a8;}</style></defs><path class="cls-1" d="M396.79,157.82c.26,.75-.31,1.24-.6,1.79-3.07,5.83-6.13,11.67-9.27,17.47-.56,1.04-.54,1.79,.06,2.78,1.49,2.45,2.84,4.98,4.04,7.68-2.16-1.81-4.32-3.61-6.46-5.4-.67,.4-.81,1-1.09,1.51-2.74,5.13-5.46,10.26-8.19,15.4-1.1,2.06-.73,1.92-2.88,.84-2.09-1.04-4.19-2.08-6.24-3.2-.89-.49-1.46-.42-2.16,.36-2.03,2.28-4.14,4.5-6.23,6.73-.44,.47-.83,1.01-1.47,1.35-.35-.64,.09-1.08,.28-1.51,1.23-2.73,2.51-5.44,3.75-8.17,.62-1.36,.61-1.38-.64-2.01-3.52-1.8-7.06-3.57-10.58-5.38-.77-.39-1.51-.58-2.4-.47-8.27,.99-16.54,1.94-24.82,2.89-6.85,.79-13.69,1.55-20.54,2.33-.29,.03-.58,.15-.93-.05-.28-.46-.1-1.01-.02-1.52,.4-2.85,.82-5.69,1.25-8.53,.2-1.31,.44-2.61-.47-3.79-.43-.56-.21-1.03,.4-1.28,.81-.32,.9-.98,1.01-1.73,1.03-7.29,2.1-14.58,3.14-21.87,.67-4.68,1.33-9.37,2.02-14.05,.12-.84,.19-1.63-.07-2.48-2-6.65-3.96-13.32-5.94-19.97-.1-.33-.27-.63-.42-.96-.56,.34-.76,.86-1.04,1.31-13.23,20.71-26.46,41.42-39.67,62.14-.85,1.33-1.81,2.51-2.99,3.55-1.88,1.65-1.71,1.15-.44,3.29,.91,1.54,1.86,3.05,2.81,4.59-.55,.41-1.01,.18-1.43,.08-2.1-.49-4.21-.94-6.28-1.53-1.07-.3-1.8-.06-2.57,.68-2.05,1.94-4.15,3.81-6.25,5.69-.43,.39-.76,.95-1.42,1.02l.03,.03c-.2-.78,.3-1.38,.55-2.02,.89-2.27,1.83-4.53,2.73-6.75-.46-.46-.94-.5-1.41-.61-13.03-3.1-26.07-6.2-39.1-9.3-.99-.23-1.94-.35-2.98-.09-13.26,3.2-26.52,6.35-39.79,9.52-.29,.07-.57,.18-.83,.27-.22,.6,.23,.93,.46,1.3,1.97,3.22,3.96,6.42,5.94,9.63,.25,.4,.6,.76,.64,1.26l.03-.02c-.67,.19-1.14-.27-1.65-.53-10.56-5.27-21.11-10.57-31.68-15.83-.96-.48-1.62-1.09-2.13-2.05-9.04-17.31-18.11-34.61-27.21-51.9-.55-1.04-.61-1.91-.2-3.02,2.51-6.8,4.95-13.62,7.4-20.44,.14-.38,.25-.78,.4-1.26-.64,.22-.77,.7-1.02,1.07-5.1,7.62-10.2,15.25-15.29,22.87-.03,.05-.07,.1-.1,.15-1.08,1.65-.97,1.37-2.3,.53-4.66-2.95-9.31-5.91-13.97-8.86-2.78-1.77-5.56-3.54-8.36-5.29-.47-.29-.89-.8-1.64-.64,.21,.92,.96,1.28,1.51,1.77,5.72,5.03,11.45,10.04,17.18,15.05,1.28,1.12,1.36,.86,.35,2.42-10.75,16.74-21.51,33.48-32.25,50.23-.49,.77-1.05,1.39-1.91,1.81-6.79,3.3-13.56,6.64-20.34,9.97-.36,.18-.7,.5-1.3,.28,.37-2.44,.74-4.91,1.13-7.38,1.38-8.75,2.77-17.51,4.15-26.26,1.52-9.64,3.06-19.28,4.57-28.92,1.5-9.52,2.98-19.05,4.47-28.58,.95-6.03,1.93-12.06,2.84-18.1,.14-.92,.63-1.34,1.32-1.75,6.48-3.87,12.97-7.75,19.43-11.65,.9-.54,2.31-.81,2.5-1.83,.17-.88-.89-1.74-1.4-2.62-.62-1.09-1.27-2.18-1.98-3.21-.52-.75-.33-1.17,.4-1.55,.32-.16,.61-.37,.91-.58,.37-.26,.67-.17,.91,.18,.24,.34,.48,.69,.72,1.03,9.23,13.29,18.46,26.59,27.7,39.88,.17,.25,.34,.49,.52,.73,.82,1.12,.83,1.14,1.88,.25,3.57-3.01,7.13-6.05,10.72-9.05,.57-.48,.97-1.05,1.37-1.65,2.27-3.39,4.52-6.78,6.79-10.17,.3-.44,.52-.95,1.13-1.37-.75,2.24-1.45,4.35-2.15,6.46-.19,.16-.29,.41-.13,.55,.22,.19,.31-.13,.45-.25,4.09-3.42,8.19-6.84,12.27-10.28,5.96-5.03,11.9-10.07,17.85-15.11,.36-.31,.75-.6,1.15-.92,.23,.61-.21,.94-.43,1.32-10.53,18.14-21.07,36.28-31.6,54.42-.15,.26-.27,.54-.46,.77-.69,.87-.58,1.65,.01,2.59,10.95,17.61,21.87,35.24,32.8,52.87,.21,.34,.46,.65,.99,.92,0-.57,0-1.13,0-1.7,.14-11.99,.27-23.98,.42-35.96,.03-2.59-.36-5.14-.58-7.71-.5-5.79-1.09-11.57-1.64-17.36-.57-5.96-1.13-11.93-1.7-17.89-.23-2.45-.42-4.9-.69-7.34-.09-.83,.2-1.09,.97-1.04,.42,.03,.84,0,1.26,0,16.55,0,33.11,.08,49.66,0,5.75-.03,11.5-.46,17.25-.75,6.05-.3,12.09-.64,18.14-.96,6.95-.36,13.89-.73,20.84-1.06,.8-.04,1.05-.28,1.19-1.12,1.82-10.81,3.7-21.6,5.56-32.4,.33-1.89,.63-3.78,.93-5.67,.12-.76,.39-1.27,1.21-1.58,12.27-4.66,24.52-9.36,36.77-14.04,.21-.08,.43-.24,.68-.05-.08,.62-.54,1.03-.87,1.51-7.07,10.27-14.16,20.52-21.24,30.79-.55,.8-1.21,1.48-1.9,2.14-6.6,6.28-13.2,12.57-19.79,18.87-.37,.36-.88,.62-1.06,1.4,1.86,.21,3.67-.37,5.54-.13-.02,.79-.63,1.26-1.03,1.81-11.98,16.56-23.98,33.12-35.97,49.67-1.23,1.7-1.2,1.19-.14,2.93,7.01,11.45,14.05,22.88,21.08,34.32,.28,.45,.58,.89,.89,1.37,.57-.44,.67-1.05,.89-1.57,10.6-25.89,21.19-51.78,31.74-77.69,.55-1.35,1.3-2.1,2.71-2.5,2.36-.67,4.66-1.53,6.99-2.34,1.15-.4,1.17-.42,.81-1.64-1.93-6.55-3.88-13.09-5.82-19.64-.1-.34-.18-.68-.32-1.22,.71,.14,1.11,.55,1.55,.86,6.82,4.89,13.66,9.76,20.45,14.7,.94,.68,1.71,.79,2.79,.4,3.04-1.11,6.11-2.12,9.18-3.14,.55-.18,1.09-.52,1.74-.36,.12,.63-.3,1.02-.57,1.45-1.37,2.18-2.75,4.36-4.17,6.51-.48,.73-.55,1.18,.26,1.75,10.78,7.7,21.55,15.43,32.32,23.14,.14,.1,.32,.14,.48,.2,.53-.27,.5-.82,.63-1.24,5.84-18.76,11.64-37.52,17.51-56.27,.4-1.28,.17-2.08-.65-3.05-6.85-8.11-13.65-16.26-20.46-24.4-.49-.59-.97-1.18-1.5-1.83,.41-.08,.05-.04,.22-.21,.04-.04,.11-.05,.16-.05,.3,0,.6-.02,.89,.04,28.95,5.21,57.89,10.43,86.83,15.65,.23,.04,.44,.17,.65,.25,.03,.75-.39,1.29-.67,1.87-9.2,19.24-18.4,38.49-27.61,57.73-9.49,19.84-18.96,39.68-28.49,59.5-.6,1.24-.55,2.16,.16,3.3,1.3,2.07,2.44,4.25,3.63,6.35,.73-.15,1-.65,1.35-1.03,3.81-4.07,7.6-8.16,11.41-12.23,.4-.43,.71-.97,1.31-1.17l-.03-.04ZM108.56,106.76c-.2,.03-.32,.15-.38,.34-.38,0-.67,.2-.95,.44-1.33,1.11-2.72,2.16-3.98,3.33-.77,.71-1.24,.47-1.74-.2-.25-.33-.47-.69-.72-1.03-.93-1.32-1.88-2.62-2.78-3.96-.49-.74-.99-.87-1.8-.44-1.26,.67-1.3,.63-2.13-.55-1.55-2.2-3.09-4.4-4.62-6.61-4.69-6.78-9.38-13.57-14.07-20.35-1.02-1.47-1.3-1.51-2.89-.55-5.74,3.45-11.46,6.92-17.23,10.32-1.08,.64-1.64,1.42-1.8,2.67-.36,2.71-.84,5.41-1.29,8.11-.11,.65-.28,1.34-.04,1.94,.17,.42,.91,0,1.23,.47,.06,.09,.19,.14,.29,.21,2.73,1.73,5.46,3.45,8.18,5.18,7.57,4.8,15.14,9.61,22.71,14.41,3.03,1.92,6.03,3.88,9.08,5.77,1.41,.88,1.46,.83,2.39-.56,3.59-5.37,7.18-10.74,10.76-16.11,.52-.79,1.22-1.48,1.43-2.45,.11-.13,.23-.25,.34-.38,.04-.02,.09-.03,.12-.06,.02-.02,.02-.06,.02-.09-.04,.05-.09,.1-.13,.16Zm-39.61,7.57c.11-.27,0-.31-.23-.22,.09,.07,.17,.13,.26,.2,.4,.51,.72,1.15,1.7,1.01-.56-.62-.97-1.13-1.74-.98Zm311.3,60.07c.06,.05,.12,.1,.18,.15-.05-.06-.1-.12-.15-.17,.02-.36-.01-.72-.2-1.04-.89-1.55-1.78-3.1-2.67-4.65-.12-.2-.27-.39-.43-.56-.14-.14-.33-.11-.49-.02-.65,.4-1.12,2.2-.63,2.73,1.3,1.38,2.69,2.66,4.39,3.56Zm-14,15.84c.45-.1,.66-.49,.94-.79,2.7-2.88,5.38-5.78,8.07-8.66,.94-1.01,1.88-2.01,2.81-3.02,.29-.31,.64-.64,.17-1.05-1.37-1.19-2.72-2.41-4.31-3.58-2.4,5.1-4.71,9.95-6.98,14.82-.32,.69-.8,1.34-.81,2.16-.16,.06-.29,.21-.14,.33,.18,.14,.22-.08,.25-.21Zm7.9-77.36c-.63,.11-1.02,.6-1.48,.96-4.35,3.38-8.71,6.76-13.02,10.19-.86,.68-1.71,.94-2.79,.95-8.63,.04-17.25,.12-25.88,.19-.51,0-1.04-.08-1.75,.28,10.1,8.3,20.06,16.49,30.12,24.76-1.5,1.21-3.21,1.59-4.56,2.81,6.07,5.15,12.07,10.25,18.2,15.46,.53-1.07,.89-1.95,1.38-2.76,.57-.94,.43-1.71-.1-2.64-2.75-4.77-5.4-9.6-8.16-14.37-.68-1.17-.83-2.19-.46-3.51,2.82-10.14,5.56-20.31,8.31-30.47,.16-.6,.56-1.21,.17-1.88,.09,.13,.18,.14,.24,0,.02-.04,0-.1-.02-.16-.07,.07-.13,.13-.2,.2Zm-124.51,73.76c.68-.02,1.03-.56,1.46-.96,.74-.69,1.43-1.46,2.22-2.1,2.02-1.62,3.88-3.36,5.22-5.62,.76-1.29,1.59-2.53,2.4-3.79,6.77-10.57,13.56-21.13,20.32-31.71,5.83-9.12,11.58-18.28,17.48-27.35,1.13-1.74,1.8-3.26,.74-5.19-.11-.2-.11-.46-.18-.69-1.39-4.69-2.77-9.39-4.18-14.08-.33-1.08-.46-1.15-1.55-.79-2.27,.75-4.52,1.56-6.78,2.34-.69,.24-.97,.77-1.23,1.42-1.99,4.93-4.03,9.84-6.05,14.76-2.67,6.52-5.34,13.05-8.01,19.58-1.88,4.59-3.74,9.19-5.62,13.77-2.65,6.47-5.31,12.93-7.96,19.4-2.04,4.97-4.12,9.93-6.11,14.93-.79,1.99-1.89,3.87-2.17,6.04-.05,.06-.1,.12-.15,.17,.06-.05,.12-.1,.17-.15Zm-89.26,6.82s.03,.09,.05,.12c.02,.02,.06,.02,.1,.03-.05-.05-.1-.1-.15-.15-.05-.76-.62-1.27-.92-1.91-.82-1.75-1.9-2.73-3.94-1.82-.59,.26-.9-.1-.9-.71,0-1.32-.04-2.64,0-3.95,.03-.87-.19-1.6-.66-2.35-3.05-4.86-6.04-9.76-9.07-14.63-3.47-5.59-6.96-11.16-10.42-16.74-3.97-6.4-7.91-12.81-11.87-19.22-1.67-2.69-3.36-5.37-5.01-8.07-.45-.74-.88-1.43-.27-2.46,3.98-6.74,7.87-13.54,11.81-20.31,4.27-7.34,8.56-14.66,12.85-21.98,.25-.43,.47-.83,.41-1.33,.04-.02,.09-.02,.13-.05,.02-.02,.02-.06,.03-.09-.05,.05-.1,.1-.15,.15-1.36,.69-2.33,1.86-3.48,2.81-2.71,2.25-5.4,4.52-8.1,6.79-2.79,2.34-5.61,4.65-8.34,7.05-1.41,1.24-3.11,2.19-3.79,4.17-1.93,5.65-3.96,11.28-5.97,16.9-1.24,3.49-2.44,7-3.81,10.44-.67,1.68-1.01,3.17,.32,4.66,.23,.26,.33,.64,.49,.95,2.53,4.82,5.06,9.64,7.59,14.47,4.11,7.85,8.22,15.69,12.32,23.54,1.8,3.45,3.6,6.9,5.36,10.37,.4,.79,.95,1.33,1.74,1.72,7.27,3.66,14.53,7.35,21.8,11.03,.58,.3,1.15,.67,1.85,.59ZM354.35,31.92s-.03-.09-.05-.12c-.02-.02-.06-.02-.09-.02,.05,.05,.09,.1,.14,.15,0,.31,.12,.58,.32,.82,1.39,1.64,2.79,3.27,4.17,4.92,2.91,3.48,5.76,7.02,8.74,10.44,1.11,1.28,1.98,2.82,3.48,3.78,.45-.63,.36-1.45,.97-1.89,.18,.12,.31,.16,.37,.25,4.49,5.81,9,11.62,13.47,17.44,5.39,7.01,10.75,14.04,16.13,21.05,.95,1.23,1.94,2.43,2.87,3.67,.78,1.03,.74,1.48-.05,2.16-.95,.81-1.31,.81-2.22-.21-.88-.98-1.69-2.01-2.53-3.02-2.1-2.52-4.2-5.05-6.31-7.57-2.22-2.66-4.46-5.3-6.68-7.96-2.07-2.47-4.13-4.96-6.2-7.43-2.3-2.75-4.59-5.5-6.9-8.24-.48-.58-.91-1.24-1.7-1.52-.43,.56-.54,1.15-.71,1.7-2.75,8.84-5.5,17.69-8.26,26.53-1.39,4.45-2.82,8.89-4.2,13.34-1.8,5.82-3.57,11.65-5.37,17.47-.18,.59-.18,1.32-1.02,1.66-2.4-1.74-4.8-3.52-7.23-5.25-6.86-4.9-13.74-9.76-20.59-14.68-9.71-6.97-19.39-13.99-29.11-20.94-.95-.68-1.79-1.59-2.99-1.89-.06-.18-.12-.2-.15-.08,0,.01,.1,.05,.15,.08-.09,.68,.14,1.29,.33,1.93,1.43,4.75,2.86,9.49,4.27,14.25,2.44,8.25,4.85,16.5,7.3,24.74,1.75,5.9,3.54,11.78,5.3,17.68,.58,1.95,1.06,3.87,.51,5.97-.23,.88-.34,1.87-.45,2.82-.34,2.9-.76,5.79-1.17,8.68-.42,2.95-.88,5.89-1.32,8.83-.45,3.06-.97,6.12-1.29,9.2-.15,1.42-.82,2.85-.31,4.46,1.05-.56,2.01-1.04,2.93-1.57,6.84-3.94,13.68-7.89,20.52-11.83,5.49-3.16,10.99-6.33,16.49-9.48,1.35-.77,2.73-1.5,4.08-2.26,.53-.3,.93-.28,1.45,.12,1.03,.79,1.07,.74,2.58-.43-.68-.62-1.31-1.25-1.99-1.81-4.7-3.87-9.41-7.74-14.12-11.6-5-4.08-10.01-8.13-15-12.22-.42-.34-1.02-.64-1.02-1.52,2.35,.39,4.58-.27,6.86-.26,9.05,.03,18.1-.02,27.16-.01,.94,0,1.7-.18,2.45-.82,1.73-1.47,3.57-2.8,5.36-4.2,3.62-2.83,7.22-5.7,10.88-8.49,1.51-1.16,2.86-2.55,4.61-3.39h0c.03,.6,0,1.18-.16,1.77-1.24,4.49-2.46,8.98-3.68,13.47-2.21,8.18-4.4,16.37-6.66,24.54-.3,1.09-.2,1.94,.34,2.88,1.92,3.38,3.79,6.79,5.69,10.18,.52,.92,1.08,1.82,1.64,2.76,.6-.46,.75-1.06,1-1.58,2.43-5.07,4.84-10.16,7.27-15.23,2.68-5.62,5.38-11.23,8.07-16.84,2.61-5.45,5.21-10.91,7.82-16.36,2.66-5.56,5.33-11.12,7.99-16.68,2.61-5.45,5.2-10.91,7.82-16.36,3.34-6.96,6.7-13.91,10.06-20.87,1.66-3.45,3.33-6.9,4.99-10.35,.13-.26,.3-.53,.12-.95-1.4-.48-2.94-.64-4.46-.91-4.28-.76-8.54-1.63-12.83-2.39-6.39-1.14-12.8-2.21-19.19-3.35-6.39-1.14-12.77-2.34-19.16-3.51-4.57-.84-9.13-1.74-13.72-2.46-2.58-.41-5.11-1.28-7.77-1.15Zm-94.79,57.17c-.2-.33-.45-.31-.68-.31-1.5,0-2.99,.26-4.46,.27-3.3,0-6.57,.47-9.86,.46-3.05-.02-6.08,.55-9.14,.38-.12,0-.24,0-.36,.02-3.07,.59-6.2,.41-9.29,.58-3.7,.19-7.4,.65-11.11,.47-.12,0-.24,0-.36,.02-3.61,.56-7.28,.59-10.9,.62-15.83,.13-31.67,.05-47.5,.05-.48,0-.96,.02-1.44,0-.73-.02-1.04,.43-.87,1.03,.43,1.47,.22,2.98,.39,4.46,.23,1.95,.49,3.9,.61,5.86,.12,1.79,.35,3.56,.47,5.35,.19,3.09,.68,6.16,.97,9.24,.3,3.21,.41,6.44,.82,9.63,.18,1.43,.18,2.86,.35,4.28,.3,2.43,.7,4.85,.66,7.3-.16,8.44,.14,16.88-.27,25.33-.34,6.94-.1,13.91-.09,20.86,0,1.29,.05,1.31,1.34,1.01,3.9-.89,7.8-1.76,11.69-2.69,10.04-2.41,20.09-4.81,30.11-7.3,1.68-.42,3.26-.44,4.91-.05,9.64,2.31,19.28,4.59,28.92,6.89,3.54,.85,7.08,1.72,10.62,2.57,1.31,.31,1.5,.23,2.06-1.04,.58-1.31,1.05-2.68,1.67-3.97,.35-.74,.27-1.25-.16-1.95-4.87-7.89-9.69-15.81-14.53-23.72-3.15-5.15-6.29-10.32-9.47-15.45-.41-.66-.45-1.03,.04-1.7,6.24-8.55,12.42-17.13,18.64-25.7,5.23-7.21,10.49-14.4,15.72-21.61,.27-.37,.61-.74,.52-1.19Zm-208.1,14.03c-.67,4.33-1.3,8.38-1.93,12.44-.52,3.35-1.02,6.71-1.55,10.06-.54,3.41-1.13,6.81-1.67,10.22-.54,3.41-1.02,6.83-1.55,10.24-.55,3.47-1.13,6.93-1.69,10.4-.57,3.53-1.13,7.05-1.7,10.58-.51,3.23-1.02,6.47-1.53,9.71-.56,3.59-1.19,7.17-1.66,10.76-.19,1.42-.86,2.85-.3,4.47,.41-.16,.75-.27,1.06-.42,4.79-2.33,9.57-4.7,14.38-6.99,.98-.47,1.64-1.14,2.19-2.02,4.33-6.81,8.65-13.63,13.01-20.42,5.39-8.41,10.81-16.79,16.18-25.21,.65-1.02,2.04-1.98,1.61-3.16-.39-1.07-1.65-1.85-2.59-2.68-2.55-2.25-5.14-4.46-7.71-6.7-2.25-1.97-4.47-3.97-6.72-5.93-2.43-2.12-4.89-4.2-7.32-6.33-2.34-2.05-4.59-4.2-7-6.15-1.1-.89-1.98-2.04-3.5-2.88Zm253.96,86.39c.86,.15,1.75-.35,2.72-.37,2.56-.07,5.08-.62,7.64-.8,2.91-.21,5.8-.61,8.69-1.02,1.36-.19,2.73-.29,4.09-.44,2.6-.3,5.2-.64,7.8-.97,2.6-.32,5.2-.65,7.8-.97,2.42-.29,4.71-.5,7.04,.92,3.06,1.86,6.38,3.29,9.6,4.89,1.4,.7,1.43,.67,2.12-.75,.05-.11,.1-.22,.15-.33,1.47-3.47,3.14-6.85,4.75-10.26,1.12-2.38,2.23-4.77,3.43-7.11,.38-.75,.4-1.22-.36-1.81-1.5-1.18-2.86-2.54-4.32-3.78-4.33-3.66-8.69-7.29-13.02-10.96-1.62-1.37-1.61-1.44-3.56-.41-5.66,2.99-11.31,6.01-16.97,9-5.19,2.74-10.39,5.45-15.58,8.18-3.76,1.98-7.5,3.99-11.26,5.96-.69,.36-1.11,.76-1.22,1.6-.38,2.83-.87,5.64-1.3,8.47-.09,.56,.1,.95,.74,.96,.3,0,.6,0,1.02,0Zm-41.27-112.2c.41,.03,.57-.26,.78-.45,4.14-3.99,8.27-7.99,12.4-11.98,.52-.5,.99-1.03,1.62-1.41,.51-.31,.9-.78,1.24-1.28,2.64-3.85,5.28-7.69,7.93-11.53,2.11-3.05,4.26-6.06,6.32-9.15,.96-1.44,2.09-2.79,2.94-4.68-.92,.31-1.54,.5-2.14,.73-8.26,3.17-16.5,6.37-24.78,9.49-1.12,.42-1.58,1.05-1.76,2.16-.61,3.88-1.25,7.76-1.92,11.63-.78,4.52-1.64,9.02-2.35,13.55-.15,.94-.71,1.9-.29,2.91Zm117.83,102.96c-.06-.17-.1-.34-.18-.49-.38-.68-.95-.76-1.57-.11-1.49,1.55-2.89,3.18-4.4,4.71-2.35,2.38-4.44,5-6.87,7.3-.47,.45-.8,1.04-1.24,1.52-.51,.55-.39,.96,.22,1.27,1.28,.66,2.55,1.32,3.85,1.92,1.21,.57,1.5,.47,2.13-.72,2.54-4.8,5.07-9.61,7.59-14.42,.17-.32,.31-.64,.48-.98Zm-68.28-92.59c.58,.47,1.01,1.19,1.66,.98,.74-.24,.98-1.05,1.09-1.95-1.02,.22-1.84,.44-2.75,.97Z"/><path class="cls-1" d="M456.14,201.6c-2.95-1.3-5.91-2.6-8.86-3.9-7.56-3.34-15.11-6.7-22.68-10.03-.91-.4-1.58-.9-2.02-1.87-4.84-10.56-9.73-21.1-14.6-31.66-.16-.35-.53-.69-.25-1.17,.57,.03,.98,.4,1.42,.66,9.83,5.62,19.65,11.26,29.48,16.88,.7,.4,1.23,.88,1.63,1.6,5.24,9.49,10.51,18.97,15.77,28.46,.14,.25,.24,.52,.36,.78-.08,.08-.17,.16-.25,.24Zm-6.8-6.33c.06,.05,.12,.09,.18,.14-.05-.06-.1-.11-.15-.17,.09-.71-.28-1.28-.6-1.85-1.07-1.94-2.17-3.86-3.24-5.79-2.52-4.55-5.04-9.11-7.56-13.67-.24-.43-.5-.78-.95-1.03-1.62-.9-3.22-1.85-4.82-2.77-4.72-2.71-9.43-5.44-14.18-8.1-1.21-.68-2.29-1.68-3.75-1.92-.27,.55,0,.91,.16,1.28,1.82,3.9,3.65,7.81,5.47,11.71,1.64,3.53,3.33,7.03,4.88,10.6,.41,.94,1,1.41,1.85,1.79,5.86,2.57,11.7,5.19,17.58,7.71,1.69,.73,3.26,1.77,5.13,2.07Z"/><path class="cls-1" d="M396.82,157.86c.05-.08,.1-.16,.15-.25,.02,.07,.09,.15,.07,.2-.04,.11-.14,.11-.24,0,0,0,.03,.04,.03,.04Z"/><path class="cls-1" d="M242.06,197.4c-.05,.08-.09,.16-.14,.24-.14-.23-.02-.24,.17-.2,0,0-.03-.03-.03-.03Z"/><path class="cls-1" d="M168.29,200.65s.07,.06,.1,.09c-.03-.04-.05-.08-.08-.11,0,0-.02,.02-.02,.02Z"/><path class="cls-1" d="M356.07,205.49s-.07,.07-.11,.11c-.03-.04-.09-.08-.09-.12,0-.04,.06-.08,.1-.11,.03,.04,.06,.08,.1,.12Z"/><path class="cls-2" d="M379.18,105.32c-1.75,.84-3.1,2.23-4.61,3.39-3.65,2.79-7.25,5.66-10.88,8.49-1.79,1.4-3.63,2.73-5.36,4.2-.76,.64-1.52,.82-2.45,.82-9.05,0-18.1,.05-27.16,.01-2.28,0-4.51,.64-6.86,.26,0,.88,.6,1.17,1.02,1.52,4.99,4.09,10.01,8.14,15,12.22,4.72,3.85,9.42,7.72,14.12,11.6,.69,.56,1.32,1.19,1.99,1.81-1.51,1.17-1.55,1.22-2.58,.43-.52-.4-.92-.42-1.45-.12-1.35,.77-2.73,1.49-4.08,2.26-5.5,3.15-10.99,6.32-16.49,9.48-6.84,3.94-13.68,7.89-20.52,11.83-.92,.53-1.87,1.01-2.93,1.57-.51-1.61,.16-3.04,.31-4.46,.33-3.08,.84-6.13,1.29-9.2,.43-2.95,.89-5.89,1.32-8.83,.42-2.89,.83-5.78,1.17-8.68,.11-.95,.22-1.93,.45-2.82,.56-2.1,.08-4.02-.51-5.97-1.76-5.89-3.55-11.78-5.3-17.68-2.44-8.24-4.86-16.5-7.3-24.74-1.41-4.75-2.84-9.5-4.27-14.25-.19-.63-.43-1.25-.33-1.93h0c1.2,.31,2.04,1.21,2.99,1.89,9.72,6.96,19.4,13.97,29.11,20.94,6.85,4.91,13.73,9.78,20.59,14.68,2.43,1.74,4.83,3.51,7.23,5.25,.84-.34,.84-1.07,1.02-1.66,1.8-5.82,3.57-11.65,5.37-17.47,1.38-4.45,2.81-8.89,4.2-13.34,2.76-8.84,5.5-17.69,8.26-26.53,.17-.56,.28-1.15,.71-1.7,.79,.28,1.21,.95,1.7,1.52,2.31,2.74,4.6,5.49,6.9,8.24,2.07,2.48,4.13,4.96,6.2,7.43,2.22,2.66,4.46,5.3,6.68,7.96,2.11,2.52,4.2,5.05,6.31,7.57,.84,1.01,1.65,2.05,2.53,3.02,.91,1.02,1.27,1.03,2.22,.21,.79-.68,.83-1.13,.05-2.16-.93-1.24-1.93-2.44-2.87-3.67-5.38-7.02-10.74-14.04-16.13-21.05-4.48-5.83-8.98-11.63-13.47-17.44-.07-.09-.19-.13-.37-.25-.61,.44-.52,1.26-.97,1.89-1.49-.95-2.36-2.5-3.48-3.78-2.98-3.42-5.83-6.96-8.74-10.44-1.38-1.65-2.78-3.28-4.17-4.92-.2-.24-.31-.5-.32-.82h0c2.66-.14,5.19,.74,7.77,1.14,4.59,.72,9.15,1.62,13.72,2.46,6.39,1.17,12.77,2.37,19.16,3.51,6.39,1.14,12.8,2.21,19.19,3.35,4.28,.77,8.54,1.64,12.83,2.39,1.52,.27,3.06,.43,4.46,.91,.18,.42,0,.68-.12,.95-1.66,3.45-3.33,6.9-4.99,10.35-3.35,6.96-6.71,13.91-10.06,20.87-2.62,5.45-5.21,10.91-7.82,16.36-2.66,5.56-5.33,11.12-7.99,16.68-2.61,5.45-5.21,10.91-7.82,16.36-2.69,5.62-5.38,11.23-8.07,16.84-2.43,5.08-4.84,10.16-7.27,15.23-.25,.52-.4,1.12-1,1.58-.56-.93-1.12-1.83-1.64-2.76-1.9-3.39-3.77-6.8-5.69-10.18-.54-.94-.64-1.8-.34-2.88,2.26-8.17,4.45-16.36,6.66-24.54,1.22-4.49,2.44-8.99,3.68-13.47,.16-.59,.19-1.18,.16-1.78,.18-.05,.21-.11,.09-.14-.01,0-.05,.09-.08,.15Z"/><path class="cls-2" d="M259.56,89.09c.1,.45-.25,.82-.52,1.19-5.24,7.21-10.49,14.4-15.72,21.61-6.21,8.56-12.4,17.15-18.64,25.7-.49,.67-.45,1.04-.04,1.7,3.19,5.13,6.32,10.3,9.47,15.45,4.84,7.91,9.66,15.83,14.53,23.72,.43,.7,.52,1.21,.16,1.95-.62,1.29-1.09,2.65-1.67,3.97-.56,1.27-.75,1.35-2.06,1.04-3.54-.85-7.08-1.72-10.62-2.57-9.64-2.3-19.28-4.58-28.92-6.89-1.65-.39-3.23-.37-4.91,.05-10.02,2.49-20.07,4.89-30.11,7.3-3.89,.93-7.79,1.8-11.69,2.69-1.29,.29-1.34,.28-1.34-1.01,0-6.95-.25-13.92,.09-20.86,.41-8.45,.11-16.89,.27-25.33,.05-2.45-.36-4.87-.66-7.3-.18-1.42-.17-2.85-.35-4.28-.41-3.19-.52-6.42-.82-9.63-.29-3.08-.78-6.15-.97-9.24-.11-1.79-.35-3.56-.47-5.35-.13-1.96-.38-3.91-.61-5.86-.17-1.48,.03-2.99-.39-4.46-.17-.6,.14-1.05,.87-1.03,.48,.01,.96,0,1.44,0,15.83,0,31.67,.08,47.5-.05,3.63-.03,7.29-.06,10.9-.62,.12-.02,.24-.02,.36-.02,3.72,.18,7.42-.28,11.11-.47,3.09-.16,6.22,.02,9.29-.58,.12-.02,.24-.03,.36-.02,3.06,.17,6.09-.39,9.14-.38,3.29,.02,6.56-.45,9.86-.46,1.47,0,2.97-.27,4.46-.27,.23,0,.48-.01,.68,.31Zm-62.95,37.77c-.83-.67-1.6-1.22-2.3-1.86-3.3-3.04-6.69-5.98-10.02-8.98-4.93-4.45-9.85-8.91-14.81-13.32-2.77-2.46-5.51-4.96-8.22-7.5-.69-.64-1.12-.66-1.77,.02-1.01,1.06-1.12,1.26-.46,2.07,3.5,4.24,7.01,8.47,10.53,12.69,3.3,3.94,6.64,7.85,9.93,11.8,3.94,4.73,7.84,9.48,11.77,14.22,.88,1.07,.91,1.1,0,2.26-.99,1.28-2.02,2.52-2.99,3.81-3.7,4.92-7.35,9.88-11.13,14.74-4.14,5.33-8.18,10.75-12.21,16.17-.64,.85-1.55,1.59-1.76,2.74,.39,.17,.68,.09,.97,0,5.82-1.82,11.64-3.65,17.46-5.47,5.37-1.67,10.74-3.32,16.1-5.01,.95-.3,1.91-.32,2.84-.14,8.72,1.71,17.43,3.45,26.14,5.19,.76,.15,1.51,.35,2.28,.46,1.08,.16,1.34-.18,.96-1.16-.07-.17-.15-.33-.23-.49-1.89-3.87-3.83-7.73-5.67-11.63-2.51-5.31-5.24-10.51-7.73-15.83-.49-1.04-.63-2.06-.45-3.13,.79-4.64,1.63-9.27,2.41-13.91,1.21-7.17,2.4-14.34,3.58-21.51,.09-.54,.29-1.17-.36-1.78-8.31,8.53-16.44,17.14-24.88,25.53Z"/><path class="cls-2" d="M51.46,103.11c1.51,.84,2.4,2,3.5,2.88,2.42,1.95,4.66,4.11,7,6.15,2.43,2.12,4.89,4.21,7.32,6.33,2.25,1.96,4.47,3.96,6.72,5.93,2.56,2.24,5.16,4.45,7.71,6.7,.94,.83,2.2,1.61,2.59,2.68,.43,1.18-.96,2.15-1.61,3.16-5.37,8.41-10.8,16.8-16.18,25.21-4.35,6.8-8.68,13.61-13.01,20.42-.56,.87-1.21,1.55-2.19,2.02-4.81,2.29-9.59,4.66-14.38,6.99-.31,.15-.64,.26-1.06,.42-.56-1.62,.11-3.05,.3-4.47,.48-3.6,1.1-7.18,1.66-10.76,.51-3.24,1.02-6.47,1.53-9.71,.56-3.53,1.13-7.05,1.7-10.58,.56-3.47,1.15-6.93,1.69-10.4,.54-3.41,1.02-6.83,1.55-10.24,.54-3.41,1.13-6.81,1.67-10.22,.53-3.35,1.03-6.71,1.55-10.06,.63-4.06,1.26-8.11,1.93-12.44Z"/><path class="cls-2" d="M305.42,189.51c-.42,0-.72,0-1.02,0-.64-.01-.83-.4-.74-.96,.44-2.82,.92-5.64,1.3-8.47,.11-.84,.53-1.24,1.22-1.6,3.76-1.97,7.5-3.98,11.26-5.96,5.19-2.73,10.39-5.44,15.58-8.18,5.66-2.99,11.3-6.01,16.97-9,1.95-1.03,1.94-.96,3.56,.41,4.32,3.67,8.69,7.29,13.02,10.96,1.46,1.24,2.81,2.6,4.32,3.78,.75,.59,.74,1.06,.36,1.81-1.2,2.34-2.31,4.73-3.43,7.11-1.61,3.41-3.28,6.79-4.75,10.26-.05,.11-.1,.22-.15,.33-.7,1.42-.72,1.44-2.12,.75-3.22-1.6-6.54-3.03-9.6-4.89-2.33-1.41-4.62-1.21-7.04-.92-2.6,.32-5.2,.65-7.8,.97-2.6,.32-5.2,.67-7.8,.97-1.36,.16-2.73,.25-4.09,.44-2.89,.41-5.78,.81-8.69,1.02-2.56,.19-5.08,.73-7.64,.8-.97,.03-1.86,.52-2.72,.37Z"/><path class="cls-2" d="M142.38,77.97c.06,.51-.15,.9-.41,1.33-4.3,7.32-8.58,14.64-12.85,21.98-3.94,6.77-7.82,13.57-11.81,20.31-.61,1.03-.18,1.71,.27,2.46,1.65,2.71,3.34,5.38,5.01,8.07,3.96,6.4,7.91,12.82,11.87,19.22,3.46,5.59,6.96,11.16,10.42,16.74,3.03,4.87,6.02,9.77,9.07,14.63,.47,.75,.69,1.48,.66,2.35-.05,1.32-.01,2.64,0,3.95,0,.61,.32,.97,.9,.71,2.04-.92,3.13,.06,3.94,1.82,.3,.64,.87,1.15,.92,1.91h0c-.71,.09-1.27-.29-1.85-.58-7.27-3.68-14.53-7.36-21.8-11.03-.79-.4-1.34-.94-1.74-1.72-1.77-3.47-3.56-6.92-5.36-10.37-4.1-7.85-8.21-15.7-12.32-23.54-2.53-4.82-5.06-9.64-7.59-14.47-.17-.32-.26-.7-.49-.95-1.33-1.48-.98-2.98-.32-4.66,1.37-3.44,2.56-6.95,3.81-10.44,2.01-5.63,4.04-11.25,5.97-16.9,.68-1.99,2.38-2.94,3.79-4.17,2.74-2.4,5.56-4.71,8.34-7.05,2.7-2.27,5.39-4.54,8.1-6.79,1.15-.95,2.12-2.12,3.48-2.81h0Z"/><path class="cls-2" d="M108.21,107.13c-.2,.97-.91,1.67-1.43,2.45-3.57,5.38-7.16,10.75-10.76,16.11-.93,1.39-.98,1.44-2.39,.56-3.05-1.89-6.05-3.85-9.08-5.77-7.57-4.81-15.14-9.61-22.71-14.41-2.73-1.73-5.45-3.45-8.18-5.18-.1-.06-.23-.12-.29-.21-.32-.46-1.06-.05-1.23-.47-.24-.6-.07-1.29,.04-1.94,.45-2.7,.94-5.4,1.29-8.11,.16-1.25,.72-2.03,1.8-2.67,5.76-3.41,11.49-6.87,17.23-10.32,1.59-.96,1.87-.92,2.89,.55,4.69,6.78,9.38,13.57,14.07,20.35,1.53,2.21,3.07,4.41,4.62,6.61,.83,1.18,.87,1.22,2.13,.55,.81-.43,1.3-.3,1.8,.44,.9,1.34,1.85,2.64,2.78,3.96,.24,.34,.46,.7,.72,1.03,.5,.67,.98,.91,1.74,.2,1.27-1.17,2.66-2.22,3.98-3.33,.28-.24,.57-.43,.95-.44,0,0,.03,.03,.03,.03Z"/><path class="cls-2" d="M249.61,186.61c.28-2.17,1.39-4.06,2.17-6.04,1.98-5,4.06-9.96,6.11-14.93,2.65-6.47,5.31-12.93,7.96-19.4,1.88-4.59,3.75-9.18,5.62-13.77,2.67-6.53,5.34-13.05,8.01-19.58,2.02-4.92,4.06-9.83,6.05-14.76,.26-.65,.54-1.18,1.23-1.42,2.26-.78,4.51-1.59,6.78-2.34,1.09-.36,1.22-.29,1.55,.79,1.41,4.69,2.79,9.38,4.18,14.08,.07,.23,.07,.49,.18,.69,1.06,1.93,.39,3.45-.74,5.19-5.9,9.07-11.65,18.23-17.48,27.35-6.76,10.58-13.55,21.14-20.32,31.71-.81,1.26-1.63,2.5-2.4,3.79-1.34,2.25-3.2,4-5.22,5.62-.79,.63-1.47,1.4-2.22,2.1-.43,.4-.77,.94-1.46,.96l-.02-.02Z"/><path class="cls-2" d="M264.15,77.31c-.42-1.01,.14-1.97,.29-2.91,.71-4.53,1.57-9.03,2.35-13.55,.67-3.87,1.31-7.75,1.92-11.63,.17-1.11,.64-1.74,1.76-2.16,8.28-3.12,16.52-6.32,24.78-9.49,.6-.23,1.22-.42,2.14-.73-.85,1.88-1.98,3.24-2.94,4.68-2.06,3.08-4.22,6.1-6.32,9.15-2.65,3.84-5.29,7.68-7.93,11.53-.34,.5-.73,.96-1.24,1.28-.62,.39-1.1,.92-1.62,1.41-4.13,3.99-8.26,7.99-12.4,11.98-.2,.2-.37,.49-.78,.45Z"/><path class="cls-2" d="M381.98,180.27c-.16,.34-.31,.67-.48,.98-2.53,4.81-5.05,9.62-7.59,14.42-.63,1.19-.91,1.29-2.13,.72-1.3-.61-2.57-1.27-3.85-1.92-.61-.31-.72-.72-.22-1.27,.44-.48,.77-1.07,1.24-1.52,2.43-2.3,4.52-4.92,6.87-7.3,1.51-1.53,2.91-3.16,4.4-4.71,.63-.65,1.19-.57,1.57,.11,.08,.15,.12,.32,.18,.49Z"/><path class="cls-2" d="M380.25,174.41c-1.69-.9-3.09-2.19-4.39-3.56-.5-.53-.02-2.32,.63-2.73,.16-.1,.35-.13,.49,.02,.16,.17,.31,.36,.43,.56,.9,1.55,1.78,3.1,2.67,4.65,.18,.32,.21,.68,.2,1.04l-.03,.02Z"/><path class="cls-2" d="M313.71,87.67c.91-.53,1.74-.76,2.75-.97-.11,.91-.35,1.71-1.09,1.95-.65,.21-1.08-.51-1.66-.98Z"/><path class="cls-2" d="M108.55,106.75c-.11,.13-.23,.25-.34,.38,0,0-.03-.03-.03-.03,.06-.19,.18-.3,.38-.34h0Z"/><path class="cls-2" d="M108.56,106.76c.04-.05,.09-.1,.13-.16,0,.03,0,.07-.02,.09-.03,.03-.08,.04-.12,.06,0,0,0,0,0,0Z"/><path class="cls-2" d="M380.27,174.38c.05,.06,.1,.12,.15,.17-.06-.05-.12-.1-.18-.15,0,0,.02-.02,.02-.02Z"/><path class="cls-2" d="M142.38,77.98c.05-.05,.1-.1,.15-.15,0,.03,0,.08-.03,.09-.03,.03-.08,.03-.13,.05,0,0,0,0,0,0Z"/><path class="cls-2" d="M249.63,186.64c-.06,.05-.12,.1-.17,.15,.05-.06,.1-.12,.15-.17,0,0,.02,.02,.02,.02Z"/><path class="cls-2" d="M292.81,76.54c-.05-.03-.15-.06-.15-.08,.03-.13,.09-.1,.15,.08,0,0,0,0,0,0Z"/><path class="cls-2" d="M354.34,31.93c-.05-.05-.09-.1-.14-.15,.03,0,.08,0,.09,.02,.03,.03,.04,.08,.05,.12,0,0,0,0,0,0Z"/><path class="cls-2" d="M160.38,193.46c.05,.05,.1,.1,.15,.15-.03,0-.08,0-.1-.03-.03-.03-.04-.08-.05-.12,0,0,0,0,0,0Z"/><path class="cls-2" d="M449.34,195.27c-1.87-.3-3.44-1.35-5.13-2.07-5.88-2.53-11.72-5.14-17.58-7.71-.85-.37-1.45-.85-1.85-1.79-1.55-3.57-3.23-7.07-4.88-10.6-1.82-3.91-3.65-7.81-5.47-11.71-.17-.37-.43-.73-.16-1.28,1.47,.24,2.54,1.24,3.75,1.92,4.75,2.66,9.46,5.39,14.18,8.1,1.61,.92,3.21,1.87,4.82,2.77,.45,.25,.71,.61,.95,1.03,2.51,4.56,5.03,9.11,7.56,13.67,1.07,1.94,2.17,3.86,3.24,5.79,.32,.57,.69,1.14,.6,1.85l-.03,.03Z"/><path class="cls-2" d="M449.37,195.25c.05,.06,.1,.11,.15,.17-.06-.05-.12-.09-.18-.14,0,0,.03-.03,.03-.03Z"/><path class="cls-1" d="M379.18,105.32c.03-.05,.07-.15,.08-.15,.12,.04,.09,.09-.09,.14,0,0,0,0,0,0Z"/><path class="cls-1" d="M196.6,126.86c8.44-8.39,16.57-17,24.88-25.53,.65,.61,.45,1.23,.36,1.78-1.18,7.17-2.37,14.34-3.58,21.51-.79,4.64-1.62,9.27-2.41,13.91-.18,1.07-.04,2.09,.45,3.13,2.49,5.32,5.23,10.52,7.73,15.83,1.84,3.9,3.78,7.75,5.67,11.63,.08,.16,.17,.32,.23,.49,.39,.98,.12,1.32-.96,1.16-.77-.11-1.52-.31-2.28-.46-8.71-1.74-17.42-3.49-26.14-5.19-.93-.18-1.89-.16-2.84,.14-5.36,1.69-10.73,3.34-16.1,5.01-5.82,1.82-11.64,3.65-17.46,5.47-.28,.09-.58,.16-.97,0,.21-1.14,1.13-1.88,1.76-2.74,4.03-5.42,8.07-10.83,12.21-16.17,3.78-4.86,7.43-9.81,11.13-14.74,.97-1.29,2-2.53,2.99-3.81,.9-1.16,.87-1.19,0-2.26-3.93-4.74-7.83-9.49-11.77-14.22-3.29-3.95-6.63-7.85-9.93-11.8-3.53-4.22-7.03-8.45-10.53-12.69-.67-.81-.55-1.01,.46-2.07,.65-.68,1.08-.67,1.77-.02,2.71,2.53,5.45,5.03,8.22,7.5,4.96,4.41,9.88,8.87,14.81,13.32,3.33,3,6.71,5.95,10.02,8.98,.7,.64,1.47,1.2,2.3,1.86Zm20.97-17.24c-.23,.19-.47,.36-.68,.57-4.14,4.25-8.27,8.51-12.4,12.77-2.34,2.41-4.69,4.8-6.99,7.24-.58,.62-1.02,.75-1.59,.06-.15-.18-.35-.33-.53-.49-6.37-5.73-12.74-11.46-19.12-17.19-.4-.36-.76-.83-1.63-1.12,.44,.57,.64,.86,.87,1.14,4.41,5.29,8.82,10.59,13.24,15.88,2.11,2.53,4.19,5.09,6.34,7.58,.59,.69,.64,1.22,.02,1.85-.17,.17-.3,.37-.44,.57-7.73,10.23-15.47,20.45-23.19,30.69-.27,.35-.74,.63-.61,1.2,.64,.23,1.18-.16,1.73-.33,8.24-2.54,16.47-5.09,24.69-7.69,1.07-.34,2.07-.39,3.15-.17,6.4,1.29,12.79,2.58,19.2,3.81,1.8,.34,3.58,.93,5.49,.9,.05-.73-.34-1.22-.6-1.74-3.77-7.75-7.54-15.51-11.33-23.25-.38-.77-.55-1.48-.4-2.38,1.48-8.55,2.92-17.11,4.31-25.67,.23-1.4,.77-2.78,.44-4.24,.16,.04,.21,.02,.15-.07-.04,.03-.08,.07-.13,.1Z"/></svg>